<?xml version="1.0" encoding="utf-8"?>
<svg xmlns="http://www.w3.org/2000/svg" style="margin: auto; background: rgb(241, 242, 243); display: block; shape-rendering: auto;" width="251" height="288" preserveAspectRatio="xMidYMid">
<style type="text/css">
  text {
    text-anchor: middle; font-size: 85px; opacity: 0;
  }
</style>
<g style="transform-origin:125.5px 144px;transform:scale(1)">
<g transform="translate(125.5,144)">
  <g transform="translate(0,0)"><g class="path" style="transform: scale(0.91); transform-origin: -38.925px -2.19215px; animation: 2.5s linear -1.2375s infinite normal forwards running breath-babf4ba4-e539-4542-949c-f2139aae8b84;"><path d="M13.26-40.89L13.26-40.89L13.26-40.89Q7.23-40.89 7.23-29.67L7.23-29.67L7.23-29.07L7.23-29.07Q7.23-27.97 6.72-27.97L6.72-27.97L6.72-27.97Q5.44-27.97 4.80-31.03L4.80-31.03L4.80-31.03Q4.17-34.09 4.17-36.21L4.17-36.21L4.17-36.21Q4.17-39.70 5.74-42.42L5.74-42.42L5.74-42.42Q7.31-45.14 10.63-45.14L10.63-45.14L10.63-45.14Q17.17-45.14 23.21-37.48L23.21-37.48L23.21-37.48Q28.31-43.44 34.13-49.51L34.13-49.51L34.13-49.51Q39.95-55.59 43.18-58.65L43.18-58.65L46.41-61.80L46.41-61.80Q51.68-69.70 55.08-69.70L55.08-69.70L55.08-69.70Q55.93-69.70 55.93-68.94L55.93-68.94L55.93-68.94Q55.93-68.43 55.59-67.75L55.59-67.75L55.59-67.75Q48.11-53.04 41.91-34.60L41.91-34.60L41.91-34.60Q34.09-11.14 34.09 1.36L34.09 1.36L34.09 1.36Q34.09 5.27 35.02 7.06L35.02 7.06L35.02 7.06Q35.36 7.48 35.36 7.91L35.36 7.91L35.36 7.91Q35.36 8.50 34.34 8.50L34.34 8.50L34.34 8.50Q32.05 8.50 30.52 7.35L30.52 7.35L30.52 7.35Q28.99 6.21 28.35 4.33L28.35 4.33L28.35 4.33Q27.71 2.47 27.46 0.98L27.46 0.98L27.46 0.98Q27.20-0.51 27.20-2.04L27.20-2.04L27.20-2.04Q27.20-4.59 28.14-9.61L28.14-9.61L28.14-9.61Q29.07-14.62 29.07-16.92L29.07-16.92L29.07-16.92Q29.07-20.32 27.58-24.95L27.58-24.95L27.58-24.95Q26.10-29.58 23.63-33.41L23.63-33.41L23.63-33.41Q20.91-29.67 18.66-25.93L18.66-25.93L18.66-25.93Q16.41-22.19 15.47-20.40L15.47-20.40L14.62-18.53L14.62-18.53Q11.56-12.24 8.59-7.06L8.59-7.06L8.59-7.06Q5.61-1.87 4.17 0.17L4.17 0.17L2.72 2.13L2.72 2.13Q1.79 3.23 1.02 3.23L1.02 3.23L1.02 3.23Q0.09 3.23 0.09 1.28L0.09 1.28L0.09 1.28Q0.34-10.71 21.85-35.87L21.85-35.87L21.85-35.87Q17.68-40.89 13.26-40.89zM43.35-54.57L42.42-54.23L42.42-54.23Q33.07-46.07 24.91-35.11L24.91-35.11L24.91-35.11Q28.48-29.67 30.43-22.70L30.43-22.70L30.43-22.70Q30.69-21.93 30.86-21.93L30.86-21.93L31.28-22.70L31.28-22.70Q33.41-29.92 36.42-37.70L36.42-37.70L36.42-37.70Q39.44-45.48 41.40-49.64L41.40-49.64L43.35-53.72L43.35-53.72Q43.61-54.23 43.61-54.40L43.61-54.40L43.61-54.40Q43.61-54.57 43.35-54.57L43.35-54.57" fill="#7f745b" stroke="none" stroke-width="none" transform="translate(-66.93499755859375,28.407849884033205)" style="fill: rgb(127, 116, 91);"></path></g><g class="path" style="transform: scale(0.91); transform-origin: 3.02px -1.72715px; animation: 2.5s linear -0.825s infinite normal forwards running breath-babf4ba4-e539-4542-949c-f2139aae8b84;"><path d="M68.59 1.02L68.59 1.02L68.59 1.02Q64.34-5.87 64.34-30.18L64.34-30.18L64.43-35.36L64.43-35.36Q64.43-35.87 64.69-36.13L64.69-36.13L64.69-36.13Q64.94-36.38 65.20-36.38L65.20-36.38L65.45-36.47L65.45-36.47Q72.50-37.23 78.58-42.20L78.58-42.20L78.58-42.20Q84.66-47.18 84.66-53.64L84.66-53.64L84.66-53.64Q84.66-56.19 83.34-58.10L83.34-58.10L83.34-58.10Q82.03-60.01 79.86-60.99L79.86-60.99L79.86-60.99Q77.69-61.97 75.44-62.43L75.44-62.43L75.44-62.43Q73.19-62.90 70.97-62.90L70.97-62.90L70.97-62.90Q67.06-62.90 63.24-61.63L63.24-61.63L63.24-61.63Q59.42-60.35 56.53-57.46L56.53-57.46L56.53-57.46Q53.64-54.57 53.64-50.66L53.64-50.66L53.64-50.66Q53.64-48.28 55.00-45.90L55.00-45.90L55.00-45.90Q55.34-45.05 55.34-44.80L55.34-44.80L55.34-44.80Q55.34-44.29 54.83-44.29L54.83-44.29L54.83-44.29Q54.06-44.29 52.87-45.05L52.87-45.05L52.87-45.05Q47.60-48.20 47.60-52.62L47.60-52.62L47.60-52.62Q47.60-58.40 54.70-61.71L54.70-61.71L54.70-61.71Q61.80-65.03 71.40-65.03L71.40-65.03L71.40-65.03Q74.63-65.03 77.73-64.60L77.73-64.60L77.73-64.60Q80.84-64.18 84.41-63.16L84.41-63.16L84.41-63.16Q87.98-62.14 90.14-59.88L90.14-59.88L90.14-59.88Q92.31-57.63 92.31-54.40L92.31-54.40L92.31-54.40Q92.31-50.07 88.53-45.90L88.53-45.90L88.53-45.90Q84.75-41.74 80.16-39.19L80.16-39.19L80.16-39.19Q75.56-36.64 71.49-35.62L71.49-35.62L71.49-35.62Q70.89-35.19 70.89-34.68L70.89-34.68L70.89-34.68Q70.89-31.62 71.06-27.75L71.06-27.75L71.06-27.75Q71.23-23.89 71.78-16.96L71.78-16.96L71.78-16.96Q72.34-10.03 73.91-4.46L73.91-4.46L73.91-4.46Q75.48 1.10 77.86 3.32L77.86 3.32L77.86 3.32Q78.28 3.74 78.28 4.08L78.28 4.08L78.28 4.08Q78.28 4.76 76.16 4.76L76.16 4.76L76.16 4.76Q73.70 4.76 71.83 3.83L71.83 3.83L71.83 3.83Q69.96 2.89 69.32 2.13L69.32 2.13L69.32 2.13Q68.68 1.36 68.59 1.02" fill="#7f745b" stroke="none" stroke-width="none" transform="translate(-66.93499755859375,28.407849884033205)" style="fill: rgb(191, 169, 91);"></path></g><g class="path" style="transform: scale(0.91); transform-origin: -14.315px 1.54785px; animation: 2.5s linear -0.4125s infinite normal forwards running breath-babf4ba4-e539-4542-949c-f2139aae8b84;"><path d="M49.30-13.52L49.30-13.52L49.30-13.52Q47.52-9.44 45.39-6.12L45.39-6.12L45.39-6.12Q43.27-2.81 41.48-0.94L41.48-0.94L41.48-0.94Q39.70 0.94 38.16 2.21L38.16 2.21L38.16 2.21Q36.64 3.49 35.70 3.91L35.70 3.91L34.85 4.33L34.85 4.33Q34.34 4.59 33.83 4.59L33.83 4.59L33.83 4.59Q32.90 4.59 32.90 3.49L32.90 3.49L33.15 2.47L33.15 2.47Q34 0.09 38.97-9.56L38.97-9.56L38.97-9.56Q43.95-19.21 48.37-27.03L48.37-27.03L48.37-27.03Q52.45-34.34 56.23-40.67L56.23-40.67L56.23-40.67Q60.01-47.01 61.71-49.64L61.71-49.64L63.50-52.36L63.50-52.36Q65.62-55.25 67.83-56.78L67.83-56.78L67.83-56.78Q70.04-58.31 71.40-58.31L71.40-58.31L71.40-58.31Q72.34-58.31 72.34-57.63L72.34-57.63L72.34-57.63Q72.34-57.12 71.66-55.85L71.66-55.85L71.66-55.85Q71.06-54.83 66.94-47.39L66.94-47.39L66.94-47.39Q62.82-39.95 57.16-29.28L57.16-29.28L57.16-29.28Q51.51-18.62 49.30-13.52" fill="#7f745b" stroke="none" stroke-width="none" transform="translate(-66.93499755859375,28.407849884033205)" style="fill: rgb(212, 199, 135);"></path></g><g class="path" style="transform: scale(0.91); transform-origin: 39.95px -3.55215px; animation: 2.5s linear 0s infinite normal forwards running breath-babf4ba4-e539-4542-949c-f2139aae8b84;"><path d="M116.88-20.40L116.88-20.40L116.88-20.40Q114.67-16.66 111.56-12.88L111.56-12.88L111.56-12.88Q108.46-9.10 104.55-5.57L104.55-5.57L104.55-5.57Q100.64-2.04 95.97 0.17L95.97 0.17L95.97 0.17Q91.29 2.38 86.87 2.38L86.87 2.38L86.87 2.38Q79.81 2.38 79.81-8.16L79.81-8.16L79.81-8.16Q79.81-21.51 87.59-36.13L87.59-36.13L87.59-36.13Q95.37-50.75 107.44-60.01L107.44-60.01L107.44-60.01Q108.21-60.61 109.52-61.41L109.52-61.41L109.52-61.41Q110.84-62.22 114.45-63.62L114.45-63.62L114.45-63.62Q118.06-65.03 121.04-65.03L121.04-65.03L121.04-65.03Q123.34-65.03 125.03-64.34L125.03-64.34L125.03-64.34Q125.21-64.26 125.46-64.26L125.46-64.26L125.46-64.26Q126.06-64.26 126.40-64.86L126.40-64.86L126.40-64.86Q128.18-66.30 132.09-66.30L132.09-66.30L132.77-66.30L132.77-66.30Q133.96-66.30 133.96-65.11L133.96-65.11L133.96-65.11Q133.96-63.24 131.20-59.16L131.20-59.16L131.20-59.16Q128.44-55.08 126.06-52.28L126.06-52.28L126.06-52.28Q123.68-49.47 121.81-47.43L121.81-47.43L121.81-47.43Q118.66-44.12 117.39-44.12L117.39-44.12L117.39-44.12Q116.79-44.12 116.79-44.97L116.79-44.97L116.79-44.97Q116.79-47.94 121.64-56.61L121.64-56.61L121.64-56.61Q121.72-56.78 122.49-57.97L122.49-57.97L122.49-57.97Q123.25-59.16 123.59-59.97L123.59-59.97L123.59-59.97Q123.93-60.78 123.93-61.46L123.93-61.46L123.93-61.46Q123.93-62.90 121.64-62.90L121.64-62.90L121.64-62.90Q119.77-62.90 117.51-61.71L117.51-61.71L117.51-61.71Q115.26-60.52 113.99-59.33L113.99-59.33L112.63-58.14L112.63-58.14Q103.62-49.81 96.35-36.17L96.35-36.17L96.35-36.17Q89.08-22.53 89.08-11.39L89.08-11.39L89.08-11.39Q89.08-3.32 94.18-3.32L94.18-3.32L94.18-3.32Q94.86-3.32 95.75-3.49L95.75-3.49L95.75-3.49Q96.65-3.66 98.81-4.63L98.81-4.63L98.81-4.63Q100.98-5.61 103.06-7.35L103.06-7.35L103.06-7.35Q105.15-9.10 107.91-12.71L107.91-12.71L107.91-12.71Q110.67-16.32 113.14-21.17L113.14-21.17L113.14-21.17Q113.81-22.53 114.92-25.03L114.92-25.03L114.92-25.03Q116.03-27.54 116.66-28.73L116.66-28.73L116.66-28.73Q117.30-29.92 117.73-29.92L117.73-29.92L117.73-29.92Q118.32-29.92 118.66-28.86L118.66-28.86L118.66-28.86Q119-27.80 119-27.03L119-27.03L119-27.03Q119-23.89 116.88-20.40" fill="#7f745b" stroke="none" stroke-width="none" transform="translate(-66.93499755859375,28.407849884033205)" style="fill: rgb(130, 192, 175);"></path></g></g>
</g>
</g>
<style id="breath-babf4ba4-e539-4542-949c-f2139aae8b84" data-anikit="">@keyframes breath-babf4ba4-e539-4542-949c-f2139aae8b84
{
  0% {
    animation-timing-function: cubic-bezier(0.9647,0.2413,-0.0705,0.7911);
    transform: scale(0.9099999999999999);
  }
  51% {
    animation-timing-function: cubic-bezier(0.9226,0.2631,-0.0308,0.7628);
    transform: scale(1.02994);
  }
  100% {
    transform: scale(0.9099999999999999);
  }
}</style></svg>